# xmcd
#
# Track frame offsets:
# 150
# 16705
# 36173
# 48255
# 66693
# 82378
# 97213
# 115883
# 129025
# 145048
# 157058
#
# Disc length: 2279 seconds
#
#
# Revision: 0
# Processed by: cddbd v1.5PL3 Copyright (c) Steve Scherf et al.
# Submitted via: FreeRIP 2.35 
#
DISCID=9808e50b
DTITLE=Larry Stephenson - Everytime I Sing A Love Song
DYEAR=1988
DGENRE=Bluegrass
TTITLE0=I'm In Love All Over
TTITLE1=The Violet and the Rose
TTITLE2=Rain Please Go Away
TTITLE3=Many Hills Of Time
TTITLE4=Loving You So Long Now
TTITLE5=I Should've Called
TTITLE6=Everytime I Sing A Love Song
TTITLE7=Restless Blue Eyed Lover
TTITLE8=You'll Always Be My Baby
TTITLE9=Rhythm Of The Rain
TTITLE10=Yes, I See God
EXTD=
EXTT0=
EXTT1=
EXTT2=
EXTT3=
EXTT4=
EXTT5=
EXTT6=
EXTT7=
EXTT8=
EXTT9=
EXTT10=
PLAYORDER=
